# xmcd
#
# Track frame offsets:
#	150
#	21610
#	41320
#	65011
#	83783
#	107161
#	123609
#	146332
#	162368
#	181447
#	201729
#	233411
#	253258
#
# Disc length: 3571 seconds
#
# Revision: 11
# Processed by: cddbd v1.5.2PL0 Copyright (c) Steve Scherf et al.
# Submitted via: Jack! The Knife 20 Magnifico
#
DISCID=be0df10d
DTITLE=Rage - Ghosts
DYEAR=1999
DGENRE=Metal
TTITLE0=Beginning Of The End
TTITLE1=Back In Time
TTITLE2=Ghosts
TTITLE3=Wash My Sins Away
TTITLE4=Fear
TTITLE5=Love And Fear Unite
TTITLE6=Vanished In Haze
TTITLE7=Spiritual Awakening
TTITLE8=Love After Death
TTITLE9=More Than A Lifetime
TTITLE10=Tomorrow's Yesterday
TTITLE11=End Of Eternity
TTITLE12=Six Feet Underground
EXTD=Christian Wolff, Charly Czajkowski, Peter Wagner, Victor Smolski
EXTT0=
EXTT1=
EXTT2=
EXTT3=
EXTT4=
EXTT5=
EXTT6=
EXTT7=
EXTT8=
EXTT9=
EXTT10=
EXTT11=
EXTT12=
PLAYORDER=
